<?xml version="1.0"?>
<svg width="50.00000000000001" height="44" xmlns="http://www.w3.org/2000/svg" xmlns:svg="http://www.w3.org/2000/svg">
 <g>
  <title>Layer 1</title>
  <g stroke="null" id="svg_11">
   <path transform="rotate(-0.7693910002708435 25.06499862670901,3.3349361419678276) " stroke="null" id="svg_2" d="m14.249999,0.144937c7.21,0.01 14.419997,0.350001 21.630002,0.350001c-1.150002,2.019999 -2.310001,4.029999 -3.490002,6.029999c-4.85,-0.02 -9.700001,0 -14.540001,-0.02c-1.219997,-2.11 -2.419999,-4.23 -3.599999,-6.36z" fill="#9badc1"/>
   <path stroke="null" id="svg_3" d="m11.780002,1.554936c1.249998,2.110001 2.469997,4.25 3.679998,6.390002c-2.780001,4.639999 -5.399999,9.369999 -8.119999,14.050001c2.690001,4.709995 5.319998,9.439999 8.149998,14.059996c-1.24,2.139999 -2.49,4.289997 -3.73,6.43c-3.959999,-6.800003 -7.959999,-13.589998 -11.759999,-20.489996c3.880002,-6.840002 7.740001,-13.700001 11.780002,-20.440003z" fill="#9badc1"/>
   <path id="svg_4" d="m38.639999,1.504937c3.870003,6.87 7.760002,13.72 11.75,20.510001c-3.979996,6.759996 -7.82,13.589996 -11.729996,20.399994c-1.360001,-2.049995 -2.639999,-4.149998 -3.760002,-6.329994c2.599998,-4.74 5.420002,-9.35 8.029999,-14.089998c-2.609997,-4.710001 -5.419998,-9.320002 -8.019997,-14.040001c1.149998,-2.200002 2.41,-4.340002 3.729996,-6.450002z" fill="#9badc1"/>
   <path stroke="null" id="svg_6" d="m17.84,37.514938c4.84,-0.120003 9.680002,-0.07 14.509998,-0.050003c1.270004,2.089996 2.5,4.199997 3.700001,6.32c-7.270002,0.160004 -14.560001,0.120003 -21.829999,0.07c1.199999,-2.110001 2.420001,-4.23 3.62,-6.339996z" fill="#9badc1"/>
   <circle stroke="null" id="svg_8" r="3.7" cy="21.944938" cx="25.140001" stroke-linecap="null" stroke-linejoin="null" stroke-dasharray="null" stroke-width="null" fill="#bf2e22"/>
  </g>
 </g>
</svg>